<svg width="16" height="16" viewBox="0 0 16 16" fill="none" xmlns="http://www.w3.org/2000/svg">
<path d="M3.73291 1.56665H9.69189C9.9469 1.56675 10.1926 1.65553 10.3882 1.81567L10.4692 1.88892L13.0444 4.46411C13.2506 4.6703 13.3666 4.94984 13.3667 5.24146V13.3333C13.3667 13.9406 12.8744 14.4326 12.2671 14.4329H3.73291C3.12558 14.4327 2.6333 13.9406 2.6333 13.3333V2.66626C2.63351 2.05905 3.1257 1.56686 3.73291 1.56665ZM3.73291 1.63306C3.16253 1.63327 2.69992 2.09588 2.69971 2.66626V13.3333C2.69971 13.9037 3.16237 14.3662 3.73291 14.3665H12.2671C12.8375 14.3662 13.3003 13.9037 13.3003 13.3333V5.24146C13.3002 5.00176 13.2164 4.77087 13.0659 4.58716L12.9976 4.51099L10.4224 1.93579C10.2287 1.7421 9.9658 1.63317 9.69189 1.63306H3.73291ZM4.80029 11.1663H11.1997C11.2181 11.1663 11.2329 11.1821 11.2329 11.2004C11.2327 11.2186 11.2179 11.2336 11.1997 11.2336H4.80029C4.78207 11.2336 4.76734 11.2186 4.76709 11.2004C4.76709 11.182 4.78191 11.1663 4.80029 11.1663ZM4.80029 7.96704H11.1997C11.2181 7.96704 11.2329 7.98186 11.2329 8.00024C11.2328 8.0185 11.218 8.03345 11.1997 8.03345H4.80029C4.78197 8.03345 4.76723 8.01853 4.76709 8.00024C4.76709 7.98184 4.78189 7.96704 4.80029 7.96704ZM4.80029 4.76685H7.99951C8.01792 4.76685 8.03369 4.78164 8.03369 4.80005C8.03366 4.81843 8.0179 4.83325 7.99951 4.83325H4.80029C4.78191 4.83325 4.76713 4.81843 4.76709 4.80005C4.76709 4.78164 4.78189 4.76685 4.80029 4.76685Z" fill="#09090B" stroke="#09090B"/>
</svg>
