<svg width="15" height="15" viewBox="0 0 15 15" fill="none" xmlns="http://www.w3.org/2000/svg">
<path fill-rule="evenodd" clip-rule="evenodd" d="M5 4.63598C5 3.76028 5.24219 3.10537 5.64323 2.67354C6.03934 2.24702 6.64582 1.97827 7.5014 1.97827C8.35745 1.97827 8.96306 2.24649 9.35823 2.67205C9.75838 3.10296 10 3.75705 10 4.63322V5.99996H5V4.63598ZM4 5.99996V4.63598C4 3.58145 4.29339 2.65751 4.91049 1.99303C5.53252 1.32326 6.42675 0.978271 7.5014 0.978271C8.57583 0.978271 9.46952 1.3223 10.091 1.99159C10.7076 2.65554 11 3.57893 11 4.63322V5.99996H12C12.5523 5.99996 13 6.44768 13 6.99996V13C13 13.5522 12.5523 14 12 14H3C2.44772 14 2 13.5522 2 13V6.99996C2 6.44768 2.44772 5.99996 3 5.99996H4ZM3 6.99996H12V13H3V6.99996Z" fill="#09090B"/>
</svg>
