<svg width="15" height="15" viewBox="0 0 15 15" fill="none" xmlns="http://www.w3.org/2000/svg">
<path fill-rule="evenodd" clip-rule="evenodd" d="M7.49988 0.875C5.49784 0.875 3.87488 2.49797 3.87488 4.5C3.87488 6.15288 4.98112 7.54738 6.4936 7.98351C5.29958 8.12901 4.27545 8.55134 3.50395 9.31167C2.52203 10.2794 2.0249 11.72 2.0249 13.5999C2.0249 13.8623 2.23757 14.0749 2.4999 14.0749C2.76224 14.0749 2.9749 13.8623 2.9749 13.5999C2.9749 11.8799 3.42774 10.7206 4.17078 9.9883C4.91523 9.25463 6.02661 8.87499 7.49983 8.87499C8.97305 8.87499 10.0845 9.25463 10.8289 9.98831C11.572 10.7206 12.0249 11.8799 12.0248 13.5999C12.0248 13.8623 12.2375 14.0749 12.4998 14.0749C12.7622 14.075 12.9748 13.8623 12.9748 13.6C12.9749 11.72 12.4777 10.2794 11.4958 9.31166C10.7243 8.55135 9.70013 8.12903 8.50612 7.98352C10.0186 7.5474 11.1249 6.15289 11.1249 4.5C11.1249 2.49797 9.50191 0.875 7.49988 0.875ZM4.82488 4.5C4.82488 3.02264 6.02252 1.825 7.49988 1.825C8.97724 1.825 10.1749 3.02264 10.1749 4.5C10.1749 5.97736 8.97724 7.175 7.49988 7.175C6.02252 7.175 4.82488 5.97736 4.82488 4.5Z" fill="#18181B"/>
</svg>
