<svg width="16" height="16" viewBox="0 0 16 16" fill="none" xmlns="http://www.w3.org/2000/svg">
<path d="M8.00049 1.40674C11.0991 1.40693 12.7073 3.56941 13.4321 4.84717L14.0288 5.8999H11.1997C11.1815 5.89969 11.1665 5.88495 11.1665 5.8667C11.1665 5.84848 11.1815 5.83371 11.1997 5.8335H13.8872L13.4937 5.09717C12.8514 3.897 11.2586 1.47335 8.00049 1.47314C4.02055 1.47314 1.47314 4.73547 1.47314 8.00049C1.47336 11.2654 4.02072 14.5269 8.00049 14.5269C9.79588 14.5268 11.2985 13.863 12.4077 12.8354L12.6245 12.6255C13.1541 12.0867 13.5833 11.4609 13.8989 10.7866L14.0278 10.4946C14.0314 10.4861 14.0375 10.4793 14.0454 10.4761H14.0708C14.0794 10.4796 14.0861 10.4866 14.0894 10.4946V10.52C13.8036 11.2144 13.4008 11.8645 12.895 12.4331L12.6724 12.6724C11.5335 13.8309 9.93419 14.5932 8.00049 14.5933C3.97908 14.5933 1.40695 11.2972 1.40674 8.00049C1.40674 4.70366 3.97891 1.40674 8.00049 1.40674ZM14.3999 2.6333C14.4182 2.6333 14.433 2.64824 14.4331 2.6665V5.8667C14.4331 5.88508 14.4183 5.8999 14.3999 5.8999H14.3667V2.6665C14.3668 2.64831 14.3817 2.6334 14.3999 2.6333Z" fill="#09090B" stroke="#09090B"/>
</svg>
